<mxfile host="app.diagrams.net" modified="2024-02-24T09:38:37.096Z" agent="Mozilla/5.0 (Windows NT 10.0; Win64; x64) AppleWebKit/537.36 (KHTML, like Gecko) Chrome/121.0.0.0 Safari/537.36" etag="r-BvdwcFwpC01J6Whe4K" version="23.1.5" type="github">
  <diagram name="Page-1" id="HFVDd4BjaelMmcS80nC2">
    <mxGraphModel dx="1195" dy="622" grid="1" gridSize="10" guides="1" tooltips="1" connect="1" arrows="1" fold="1" page="1" pageScale="1" pageWidth="850" pageHeight="1100" math="0" shadow="0">
      <root>
        <mxCell id="0" />
        <mxCell id="1" parent="0" />
        <mxCell id="1eMiZOvbPl03sx4a6MjY-1" value="" style="whiteSpace=wrap;html=1;aspect=fixed;" vertex="1" parent="1">
          <mxGeometry x="340" y="200" width="170" height="170" as="geometry" />
        </mxCell>
        <mxCell id="1eMiZOvbPl03sx4a6MjY-2" value="Actor" style="shape=umlActor;verticalLabelPosition=bottom;verticalAlign=top;html=1;outlineConnect=0;" vertex="1" parent="1">
          <mxGeometry x="390" y="30" width="30" height="60" as="geometry" />
        </mxCell>
        <mxCell id="1eMiZOvbPl03sx4a6MjY-3" value="" style="endArrow=none;html=1;rounded=0;exitX=0.406;exitY=-0.046;exitDx=0;exitDy=0;exitPerimeter=0;" edge="1" parent="1" source="1eMiZOvbPl03sx4a6MjY-1" target="1eMiZOvbPl03sx4a6MjY-2">
          <mxGeometry width="50" height="50" relative="1" as="geometry">
            <mxPoint x="370" y="320" as="sourcePoint" />
            <mxPoint x="420" y="270" as="targetPoint" />
          </mxGeometry>
        </mxCell>
      </root>
    </mxGraphModel>
  </diagram>
</mxfile>
